<?xml version="1.0" encoding="UTF-8"?>
<!DOCTYPE svg PUBLIC "-//W3C//DTD SVG 1.1//EN" "http://www.w3.org/Graphics/SVG/1.1/DTD/svg11.dtd">
<svg xmlns="http://www.w3.org/2000/svg" version="1.1" width="3840px" height="3840px" style="shape-rendering:geometricPrecision; text-rendering:geometricPrecision; image-rendering:optimizeQuality; fill-rule:evenodd; clip-rule:evenodd" xmlns:xlink="http://www.w3.org/1999/xlink">
<g><path style="opacity:0.995" fill="#000000" d="M 1859.5,1978.5 C 1843.78,1976.47 1830.78,1969.47 1820.5,1957.5C 1814.18,1948.52 1810.35,1938.52 1809,1927.5C 1814.27,1807.91 1788.93,1695.24 1733,1589.5C 1700.12,1528.07 1660.12,1471.74 1613,1420.5C 1605.16,1523.08 1577.16,1619.75 1529,1710.5C 1502.16,1759.32 1468.66,1803.15 1428.5,1842C 1399.17,1869.63 1365.84,1891.3 1328.5,1907C 1288.58,1923.19 1247.91,1925.52 1206.5,1914C 1162.57,1897.07 1131.4,1866.9 1113,1823.5C 1094.97,1779.49 1088.97,1733.82 1095,1686.5C 1099.68,1649.76 1107.68,1613.76 1119,1578.5C 1125.47,1558.77 1132.13,1539.1 1139,1519.5C 1161.88,1460.41 1184.21,1401.07 1206,1341.5C 1217.69,1306.09 1228.36,1270.42 1238,1234.5C 1253.08,1172.73 1259.08,1110.07 1256,1046.5C 1251.59,991.864 1238.26,939.531 1216,889.5C 1135.02,721.524 1005.86,608.69 828.5,551C 874.192,602.205 905.359,661.372 922,728.5C 929.748,767.209 931.581,806.209 927.5,845.5C 919.766,901.774 901.599,954.441 873,1003.5C 851.139,1040.37 825.806,1074.7 797,1106.5C 759.167,1146.33 719.333,1184.16 677.5,1220C 619.167,1267.67 560.833,1315.33 502.5,1363C 444.413,1411.42 389.246,1462.92 337,1517.5C 275.098,1584.12 224.098,1658.45 184,1740.5C 133.283,1849.08 109.283,1963.41 112,2083.5C 118.314,2200.08 156.647,2304.75 227,2397.5C 288.582,2475.43 361.082,2540.93 444.5,2594C 463.846,2609.87 470.679,2630.04 465,2654.5C 463.146,2659.53 461.313,2664.53 459.5,2669.5C 444.242,2690.87 423.575,2699.04 397.5,2694C 390.329,2692.08 383.662,2689.08 377.5,2685C 313.382,2642.58 254.215,2593.75 200,2538.5C 132.857,2468.62 80.857,2388.62 44,2298.5C 18.3411,2231.7 3.50778,2162.7 -0.5,2091.5C -0.5,2068.5 -0.5,2045.5 -0.5,2022.5C 11.1801,1832.23 75.6801,1662.57 193,1513.5C 232.216,1464.94 274.382,1418.77 319.5,1375C 350.904,1345.59 382.904,1316.93 415.5,1289C 485.791,1231.71 555.791,1174.04 625.5,1116C 661.634,1084.87 695.467,1051.37 727,1015.5C 756.972,981.255 780.639,942.922 798,900.5C 827.228,824.007 821.895,750.007 782,678.5C 760.743,642.574 734.576,610.407 703.5,582C 669.216,551.39 631.883,525.056 591.5,503C 566.054,478.818 562.887,451.985 582,422.5C 595.383,407.397 612.216,400.397 632.5,401.5C 794.175,408.891 941.508,458.058 1074.5,549C 1192.98,634.452 1279.48,744.952 1334,880.5C 1370.49,982.409 1379.49,1086.74 1361,1193.5C 1347.01,1270.46 1326.01,1345.46 1298,1418.5C 1273.22,1482.06 1249.55,1546.06 1227,1610.5C 1217.81,1638.58 1211.15,1667.25 1207,1696.5C 1203.01,1724.64 1206.01,1751.98 1216,1778.5C 1229.92,1807.81 1252.08,1816.31 1282.5,1804C 1301.86,1796.83 1319.52,1786.83 1335.5,1774C 1375.45,1740.39 1407.62,1700.56 1432,1654.5C 1479.92,1561.72 1503.09,1463.06 1501.5,1358.5C 1501.6,1336.81 1500.93,1315.14 1499.5,1293.5C 1499.73,1262.11 1515.06,1242.61 1545.5,1235C 1563.41,1232.48 1579.41,1236.81 1593.5,1248C 1717.71,1347.55 1809.87,1471.05 1870,1618.5C 1908.51,1717.23 1925.51,1819.56 1921,1925.5C 1918.22,1951.61 1904.38,1968.78 1879.5,1977C 1872.9,1978.27 1866.23,1978.77 1859.5,1978.5 Z"/></g>
<g><path style="opacity:1" fill="#e37311" d="M 1820.5,1957.5 C 1688.58,2059.4 1556.92,2161.74 1425.5,2264.5C 1424.51,2260.55 1424.18,2256.55 1424.5,2252.5C 1424.5,2238.83 1424.5,2225.17 1424.5,2211.5C 1436.8,2200.37 1448.96,2189.04 1461,2177.5C 1480.28,2153.53 1481.28,2128.86 1464,2103.5C 1441.29,2079.97 1415.79,2076.47 1387.5,2093C 1377.3,2102.71 1366.96,2112.21 1356.5,2121.5C 1374.51,2080.12 1388.85,2037.46 1399.5,1993.5C 1399.17,1993.17 1398.83,1992.83 1398.5,1992.5C 1341.17,2033.67 1277.17,2057.17 1206.5,2063C 1119.51,2069.67 1039.84,2049 967.5,2001C 895.466,1947.81 852.966,1876.64 840,1787.5C 837.908,1757.54 839.908,1727.88 846,1698.5C 852.195,1671.19 859.528,1644.19 868,1617.5C 893.437,1545.96 919.437,1474.63 946,1403.5C 968.809,1338.4 985.476,1271.73 996,1203.5C 1011.8,1091.11 995.469,983.776 947,881.5C 940.726,869.279 934.226,857.279 927.5,845.5C 931.581,806.209 929.748,767.209 922,728.5C 905.359,661.372 874.192,602.205 828.5,551C 1005.86,608.69 1135.02,721.524 1216,889.5C 1238.26,939.531 1251.59,991.864 1256,1046.5C 1259.08,1110.07 1253.08,1172.73 1238,1234.5C 1228.36,1270.42 1217.69,1306.09 1206,1341.5C 1184.21,1401.07 1161.88,1460.41 1139,1519.5C 1132.13,1539.1 1125.47,1558.77 1119,1578.5C 1107.68,1613.76 1099.68,1649.76 1095,1686.5C 1088.97,1733.82 1094.97,1779.49 1113,1823.5C 1131.4,1866.9 1162.57,1897.07 1206.5,1914C 1247.91,1925.52 1288.58,1923.19 1328.5,1907C 1365.84,1891.3 1399.17,1869.63 1428.5,1842C 1468.66,1803.15 1502.16,1759.32 1529,1710.5C 1577.16,1619.75 1605.16,1523.08 1613,1420.5C 1660.12,1471.74 1700.12,1528.07 1733,1589.5C 1788.93,1695.24 1814.27,1807.91 1809,1927.5C 1810.35,1938.52 1814.18,1948.52 1820.5,1957.5 Z"/></g>
<g><path style="opacity:1" fill="#fe991e" d="M 927.5,845.5 C 934.226,857.279 940.726,869.279 947,881.5C 995.469,983.776 1011.8,1091.11 996,1203.5C 985.476,1271.73 968.809,1338.4 946,1403.5C 919.437,1474.63 893.437,1545.96 868,1617.5C 859.528,1644.19 852.195,1671.19 846,1698.5C 839.908,1727.88 837.908,1757.54 840,1787.5C 852.966,1876.64 895.466,1947.81 967.5,2001C 1039.84,2049 1119.51,2069.67 1206.5,2063C 1277.17,2057.17 1341.17,2033.67 1398.5,1992.5C 1398.83,1992.83 1399.17,1993.17 1399.5,1993.5C 1388.85,2037.46 1374.51,2080.12 1356.5,2121.5C 1280.4,2188.24 1194.07,2238.08 1097.5,2271C 1037.32,2290.73 975.656,2298.06 912.5,2293C 880.729,2287.03 854.229,2271.86 833,2247.5C 811.914,2222.36 794.58,2194.69 781,2164.5C 753.101,2098.58 733.435,2030.24 722,1959.5C 712.548,1903.88 706.548,1847.88 704,1791.5C 699.643,1762.14 682.809,1744.98 653.5,1740C 633.628,1738.69 617.128,1745.52 604,1760.5C 532.691,1848.95 476.691,1946.62 436,2053.5C 403.188,2140.18 388.521,2229.85 392,2322.5C 397.603,2415.31 425.603,2500.64 476,2578.5C 498.847,2600.29 524.014,2603.29 551.5,2587.5C 588.403,2632.74 630.403,2672.41 677.5,2706.5C 665.429,2719.9 653.763,2733.56 642.5,2747.5C 578.598,2728.38 517.598,2702.38 459.5,2669.5C 461.313,2664.53 463.146,2659.53 465,2654.5C 470.679,2630.04 463.846,2609.87 444.5,2594C 361.082,2540.93 288.582,2475.43 227,2397.5C 156.647,2304.75 118.314,2200.08 112,2083.5C 109.283,1963.41 133.283,1849.08 184,1740.5C 224.098,1658.45 275.098,1584.12 337,1517.5C 389.246,1462.92 444.413,1411.42 502.5,1363C 560.833,1315.33 619.167,1267.67 677.5,1220C 719.333,1184.16 759.167,1146.33 797,1106.5C 825.806,1074.7 851.139,1040.37 873,1003.5C 901.599,954.441 919.766,901.774 927.5,845.5 Z"/></g>
<g><path style="opacity:0.996" fill="#000000" d="M 3839.5,1243.5 C 3839.5,1257.5 3839.5,1271.5 3839.5,1285.5C 3831.62,1352.1 3801.29,1405.93 3748.5,1447C 3006.17,1939.17 2263.83,2431.33 1521.5,2923.5C 1514.43,2960.22 1502.26,2995.22 1485,3028.5C 1444.28,3101.18 1399.61,3171.18 1351,3238.5C 1331.8,3264.04 1311.47,3288.71 1290,3312.5C 1238.88,3366 1177.38,3402.5 1105.5,3422C 972.321,3455.53 849.321,3433.53 736.5,3356C 627.934,3274.23 568.434,3165.06 558,3028.5C 553.835,2924.77 582.002,2831.1 642.5,2747.5C 653.763,2733.56 665.429,2719.9 677.5,2706.5C 709.803,2673.35 746.469,2646.19 787.5,2625C 826.896,2607.65 867.563,2593.98 909.5,2584C 995.312,2564.36 1081.98,2549.7 1169.5,2540C 1203.58,2537.99 1237.25,2540.83 1270.5,2548.5C 1308.83,2524 1346.83,2499 1384.5,2473.5C 1514.13,2387.86 1643.46,2301.86 1772.5,2215.5C 1773.17,2215.5 1773.5,2215.17 1773.5,2214.5C 1774.17,2214.5 1774.5,2214.17 1774.5,2213.5C 2346.45,1835.18 2918.12,1456.35 3489.5,1077C 3559.53,1034.02 3632.53,1028.36 3708.5,1060C 3775.36,1092.54 3817.53,1145.04 3835,1217.5C 3836.63,1226.29 3838.13,1234.96 3839.5,1243.5 Z"/></g>
<g><path style="opacity:1" fill="#bc9a7c" d="M 3707.5,1201.5 C 3707.49,1203.02 3706.82,1204.18 3705.5,1205C 3700.33,1208.09 3695.33,1211.42 3690.5,1215C 2949.68,1705.66 2209.01,2196.5 1468.5,2687.5C 1447.28,2655.44 1421.28,2627.77 1390.5,2604.5C 1409.5,2591.67 1428.5,2578.83 1447.5,2566C 2149.5,2100.67 2851.5,1635.33 3553.5,1170C 3587,1150.21 3622,1147.21 3658.5,1161C 3678.96,1169.64 3695.29,1183.14 3707.5,1201.5 Z"/></g>
<g><path style="opacity:1" fill="#9f7653" d="M 3707.5,1201.5 C 3732.03,1239.94 3733.87,1279.61 3713,1320.5C 3704.02,1335.96 3692.19,1348.79 3677.5,1359C 3669.5,1364.33 3661.5,1369.67 3653.5,1375C 2941.5,1847 2229.5,2319 1517.5,2791C 1516.58,2791.37 1515.75,2791.87 1515,2792.5C 1505.38,2754.79 1489.88,2719.79 1468.5,2687.5C 2209.01,2196.5 2949.68,1705.66 3690.5,1215C 3695.33,1211.42 3700.33,1208.09 3705.5,1205C 3706.82,1204.18 3707.49,1203.02 3707.5,1201.5 Z"/></g>
<g><path style="opacity:1" fill="#000000" d="M 1356.5,2121.5 C 1366.96,2112.21 1377.3,2102.71 1387.5,2093C 1415.79,2076.47 1441.29,2079.97 1464,2103.5C 1481.28,2128.86 1480.28,2153.53 1461,2177.5C 1448.96,2189.04 1436.8,2200.37 1424.5,2211.5C 1348.02,2276.61 1262.68,2327.78 1168.5,2365C 1084.49,2397.55 997.494,2410.88 907.5,2405C 856.357,2399.85 811.69,2380.18 773.5,2346C 745.767,2320.29 722.6,2291.12 704,2258.5C 671.338,2199.16 647.004,2136.49 631,2070.5C 621.918,2032.09 614.084,1993.43 607.5,1954.5C 554.433,2041.87 520.933,2136.2 507,2237.5C 496.769,2321.11 509.769,2400.78 546,2476.5C 554.333,2491.5 562.667,2506.5 571,2521.5C 579.27,2548.05 572.77,2570.05 551.5,2587.5C 524.014,2603.29 498.847,2600.29 476,2578.5C 425.603,2500.64 397.603,2415.31 392,2322.5C 388.521,2229.85 403.188,2140.18 436,2053.5C 476.691,1946.62 532.691,1848.95 604,1760.5C 617.128,1745.52 633.628,1738.69 653.5,1740C 682.809,1744.98 699.643,1762.14 704,1791.5C 706.548,1847.88 712.548,1903.88 722,1959.5C 733.435,2030.24 753.101,2098.58 781,2164.5C 794.58,2194.69 811.914,2222.36 833,2247.5C 854.229,2271.86 880.729,2287.03 912.5,2293C 975.656,2298.06 1037.32,2290.73 1097.5,2271C 1194.07,2238.08 1280.4,2188.24 1356.5,2121.5 Z"/></g>
<g><path style="opacity:1" fill="#feda43" d="M 1424.5,2211.5 C 1424.5,2225.17 1424.5,2238.83 1424.5,2252.5C 1420.83,2327.83 1407.5,2401.5 1384.5,2473.5C 1346.83,2499 1308.83,2524 1270.5,2548.5C 1237.25,2540.83 1203.58,2537.99 1169.5,2540C 1081.98,2549.7 995.312,2564.36 909.5,2584C 867.563,2593.98 826.896,2607.65 787.5,2625C 746.469,2646.19 709.803,2673.35 677.5,2706.5C 630.403,2672.41 588.403,2632.74 551.5,2587.5C 572.77,2570.05 579.27,2548.05 571,2521.5C 562.667,2506.5 554.333,2491.5 546,2476.5C 509.769,2400.78 496.769,2321.11 507,2237.5C 520.933,2136.2 554.433,2041.87 607.5,1954.5C 614.084,1993.43 621.918,2032.09 631,2070.5C 647.004,2136.49 671.338,2199.16 704,2258.5C 722.6,2291.12 745.767,2320.29 773.5,2346C 811.69,2380.18 856.357,2399.85 907.5,2405C 997.494,2410.88 1084.49,2397.55 1168.5,2365C 1262.68,2327.78 1348.02,2276.61 1424.5,2211.5 Z"/></g>
<g><path style="opacity:0.999" fill="#fe991e" d="M 1820.5,1957.5 C 1830.78,1969.47 1843.78,1976.47 1859.5,1978.5C 1848.73,2042.31 1829.23,2103.31 1801,2161.5C 1792.4,2179.04 1783.56,2196.38 1774.5,2213.5C 1773.83,2213.5 1773.5,2213.83 1773.5,2214.5C 1772.83,2214.5 1772.5,2214.83 1772.5,2215.5C 1643.46,2301.86 1514.13,2387.86 1384.5,2473.5C 1407.5,2401.5 1420.83,2327.83 1424.5,2252.5C 1424.18,2256.55 1424.51,2260.55 1425.5,2264.5C 1556.92,2161.74 1688.58,2059.4 1820.5,1957.5 Z"/></g>
<g><path style="opacity:1" fill="#f23838" d="M 1175.5,2651.5 C 1266.44,2648.55 1335.61,2685.55 1383,2762.5C 1418.51,2826.91 1421.84,2892.91 1393,2960.5C 1353.51,3033.5 1309.51,3103.5 1261,3170.5C 1238.11,3201.74 1212.61,3230.91 1184.5,3258C 1135.21,3296.44 1079.21,3318.44 1016.5,3324C 898.073,3330.56 802.906,3287.06 731,3193.5C 674.191,3111.98 657.191,3022.65 680,2925.5C 702.512,2842.39 750.012,2778.22 822.5,2733C 844.942,2721.45 868.275,2712.11 892.5,2705C 951.288,2688.17 1010.95,2675.17 1071.5,2666C 1106.35,2661.28 1141.02,2656.45 1175.5,2651.5 Z"/></g>
</svg>
